<?xml version="1.0" encoding="utf-8"?>
<!-- Generator: Adobe Illustrator 24.1.2, SVG Export Plug-In . SVG Version: 6.00 Build 0)  -->
<svg version="1.1" id="Layer_1" xmlns="http://www.w3.org/2000/svg" xmlns:xlink="http://www.w3.org/1999/xlink" x="0px" y="0px"
	 viewBox="0 0 406.6 315.3" style="enable-background:new 0 0 406.6 315.3;" xml:space="preserve">
<style type="text/css">
	.st0{fill:#F4A28C;}
	.st1{fill:#1894FF;}
	.st2{fill:#E6F3FF;}
	.st3{opacity:0.31;fill:#CE8172;enable-background:new    ;}
	.st4{opacity:8.000000e-02;fill:#1894FF;enable-background:new    ;}
	.st5{opacity:8.000000e-02;enable-background:new    ;}
	.st6{fill:#FFD200;}
	.st7{fill:#2361B5;}
	.st8{opacity:0.13;fill:#00DE9A;enable-background:new    ;}
	.st9{opacity:0.46;fill:#2361B5;enable-background:new    ;}
	.st10{fill:#00DE9A;}
	.st11{fill:#FFFFFF;}
</style>
<g transform="translate(-94.288 -42.693)">
	<path class="st0" d="M356.3,153c0,0-36.6,8.6-44.4,48c-7.8,39.4-8.4,74.1-29.9,75.3c-21.5,1.2-37.1-81.3-37.1-81.3l-16.1,4.2
		c0,0,16.7,179.3,104,95.6S356.3,153,356.3,153z"/>
	<path class="st1" d="M359.2,151.8c0,0-60.5,6-64.2,107.7l53.4,31.6L359.2,151.8z"/>
	<path class="st2" d="M359.2,151.8c0,0-61.4,6-65.1,107.7l54.1,31.6L359.2,151.8z"/>
	<path class="st0" d="M391.2,96.1c0,0-2.6,12.3-1.5,20.8c0.5,3.5,3.7,5.9,7.2,5.4c0,0,0,0,0,0c4.3-0.6,9.9-2.7,12.1-9.1l5-10.5
		c1.6-4.5,0.2-9.6-3.6-12.6C404,84.3,392.4,88.5,391.2,96.1z"/>
	<path class="st0" d="M413.1,104.6l1.6,41.1l-22.7-0.7l7.9-29.7L413.1,104.6z"/>
	<path d="M387.1,82.5c-0.6,4.6,2.4,10.7,7.1,14.5s7.7,0.8,11.6,0.5c-2.7,3.2-3.2,7.7-1.3,11.4c1.7,3.7,5.9,5.6,9.8,4.6l1.8-16.1
		c0.6-4.7-1.3-9.3-5.1-12.1c-1.6-1.2-4.8-4.3-10.9-4.3"/>
	<path class="st0" d="M403.2,108.3c0,0,0.7-4.8,4.2-4s2.6,7.7-2.3,7.8L403.2,108.3z"/>
	<path class="st0" d="M390,103.9l-4,4.4c-0.8,0.8-0.7,2.1,0.1,2.8c0.2,0.2,0.5,0.4,0.8,0.4l4.7,1.5L390,103.9z"/>
	<path class="st3" d="M397.9,121.8c2.9-0.4,5.6-1.6,7.8-3.5c0,0-1.2,7.4-10.4,13.9L397.9,121.8z"/>
	<path class="st2" d="M414.7,145.8l-22.7-0.7c0,0-61,0.9-64.7,45.4c-3.7,44.4,22.2,79.1,13.5,113.7l82.7,10.5
		C423.5,314.7,559,178.5,414.7,145.8z"/>
	<path class="st4" d="M425.5,175.7c0,0-28,22.4-9.4,62.5s7.2,52.9-20.8,45.5s-39.1-37.7-39.1-37.7l-13.7,42.4
		c0.1,5.2-0.5,10.5-1.8,15.5l82.7,10.5l3-3.1l37.4-52.6L425.5,175.7z"/>
	
		<rect x="300.8" y="210.1" transform="matrix(0.9933 -0.1153 0.1153 0.9933 -26.8015 39.6384)" class="st1" width="57.1" height="82.9"/>
	<path class="st5" d="M334.6,251.5c0,0-15.2,7.1-1.8,19.6s9.7,20.7,9.7,20.7l19.9-2.3l-1.6-13.5l-20.1-29.2L334.6,251.5z"/>
	
		<rect x="309" y="204.6" transform="matrix(0.9933 -0.1153 0.1153 0.9933 -22.098 38.7373)" class="st6" width="29.7" height="11.6"/>
	
		<rect x="309" y="204.6" transform="matrix(0.9933 -0.1153 0.1153 0.9933 -22.098 38.7373)" class="st7" width="29.7" height="11.6"/>
	<path class="st0" d="M423,205.9c-14-27.1,18.8-54.3,43-35.7c12.7,9.7,24.7,23.8,28.5,43.5c9.2,47.7,3.8,90.4-28.7,102.9
		s-117.5-49.2-117.5-49.2l10.8-17.9c0,0,74.2,53.1,92,16.8C462.5,243.4,435.1,229.2,423,205.9z"/>
	<path class="st2" d="M340.8,304.1L338,358h98.3l-12.8-43.4L340.8,304.1z"/>
	<path class="st1" d="M388.5,113c0,0-2.4,10.2,5.3,11.2c7.6,1.1,14.5-13.4,14.5-13.4s-6.4,1-4.2-4.8C404,106,395.3,112.1,388.5,113z
		"/>
	<path class="st1" d="M460.6,165.4c0,0,43.4,11,40,99.5h-52.2c0,0-0.1-12-12.2-25.9C415.2,214.8,395.3,147.5,460.6,165.4z"/>
	<path class="st2" d="M460.3,164.6c0,0,43.8,11.1,40.4,100.4H448c0,0-0.1-12.1-12.3-26.2C414.5,214.3,394.4,146.4,460.3,164.6z"/>
	<path class="st0" d="M359.2,249.4c0,0-8.7-19.3-15.1-19.6s-9.2,5.5-7.9,13.1c1.2,7.6-9.5,13.5,12.2,24.3L359.2,249.4z"/>
	<path class="st0" d="M229.9,209.1l16.3-7.5c0,0,6.1-18.8,0-19.4c-6.1-0.6-10.8,6.1-17.5,3.4s-22.2-1.2-13.1,10.1
		S229.9,209.1,229.9,209.1z"/>
	<rect x="218.1" y="149.3" class="st1" width="25.6" height="38.6"/>
	<path class="st1" d="M246.9,100l13.4,23.5c0.7,1.3,0.3,3-1,3.7l-3.8,2.1c-1.3,0.7-3,0.3-3.7-1l-13.4-23.5c-0.7-1.3-0.3-3,1-3.7
		l3.8-2.1C244.5,98.2,246.1,98.7,246.9,100z"/>
	<path class="st8" d="M246.9,100l13.4,23.5c0.7,1.3,0.3,3-1,3.7l-3.8,2.1c-1.3,0.7-3,0.3-3.7-1l-13.4-23.5c-0.7-1.3-0.3-3,1-3.7
		l3.8-2.1C244.5,98.2,246.1,98.7,246.9,100z"/>
	<rect x="218.1" y="163.6" class="st9" width="25.6" height="16.4"/>
	<rect x="135.8" y="162.2" class="st10" width="7.7" height="21.1"/>
	<rect x="129.2" y="168.9" class="st10" width="21.1" height="7.7"/>
	<path class="st2" d="M240,149.3c0,0,13.7-9.4-3.6-17.2s1.8-26.5-14.2-37.5s-39.8,0.9-48.1-21s-45.7-23.8-59.5,0
		s-20.3,63.1,12.2,58.5c32.5-4.5,72.3-12.3,70.5,9.6s20.6,7.5,20.6,7.5H240z"/>
	<path class="st7" d="M156.9,79.8L156.9,79.8c-3.6-3.5-3.7-9.3-0.2-12.9l0,0l8.6-8.8l13.1,12.7l-8.6,8.8
		C166.3,83.2,160.6,83.3,156.9,79.8C156.9,79.8,156.9,79.8,156.9,79.8z"/>
	<path class="st10" d="M178.4,70.8l-13.1-12.7l8.6-8.8c3.5-3.6,9.3-3.7,12.9-0.2l0,0l0,0c3.6,3.5,3.7,9.3,0.2,12.9c0,0,0,0,0,0
		L178.4,70.8L178.4,70.8z"/>
	<circle class="st7" cx="112" cy="83.6" r="16"/>
	<circle class="st1" cx="110.3" cy="79.5" r="16"/>
	<path class="st11" d="M117.8,78.6l-13.4,5.8c-1.5,0.6-3.1-0.2-3.7-1.6c-0.5-1.4,0.1-3,1.5-3.6l13.4-5.8c1.5-0.6,3.1,0,3.8,1.5
		C120,76.3,119.3,78,117.8,78.6L117.8,78.6z"/>
	<path class="st7" d="M166,100.7l9.5,3.7c3.3,1.3,5,5,3.7,8.3l-12.9,33.3c-1.3,3.3-5,5-8.3,3.7l-9.5-3.7c-3.3-1.3-5-5-3.7-8.3
		l12.9-33.3C159,101.1,162.7,99.5,166,100.7z"/>
	<path class="st1" d="M170.8,103.2l9.5,3.7c3.3,1.3,5,5,3.7,8.3l-13,33.4c-1.3,3.3-5,5-8.3,3.7l-9.5-3.7c-3.3-1.3-5-5-3.7-8.3
		l13-33.4C163.7,103.6,167.4,101.9,170.8,103.2z"/>
	<path class="st11" d="M160.6,123.1l13.7,5.3c0.6,0.2,0.9,0.9,0.7,1.6l-0.7,1.8c-0.2,0.6-0.9,0.9-1.6,0.7l-13.7-5.3
		c-0.6-0.2-0.9-0.9-0.7-1.6l0.7-1.8C159.3,123.2,160,122.9,160.6,123.1z"/>
</g>
</svg>
